<svg xmlns="http://www.w3.org/2000/svg" height="20" viewBox="0 -960 960 960" width="20"><path d="M263.717-96Q234-96 213-117.15T192-168v-504l192-192h312q29.7 0 50.85 21.15Q768-821.7 768-792v624q0 29.7-21.162 50.85Q725.676-96 695.96-96H263.717Zm.283-72h432v-624H414L264-642v474Zm215.789-120Q495-288 505.5-298.289q10.5-10.29 10.5-25.5Q516-339 505.711-349.5q-10.29-10.5-25.5-10.5Q465-360 454.5-349.711q-10.5 10.29-10.5 25.5Q444-309 454.289-298.5q10.29 10.5 25.5 10.5ZM444-432h72v-192h-72v192ZM264-168h432-432Z"/></svg>