<svg xmlns="http://www.w3.org/2000/svg" height="20" viewBox="0 -960 960 960" width="20"><path d="M648-144q-10.2 0-17.1-6.9-6.9-6.9-6.9-17.1v-144q0-10.2 6.9-17.1 6.9-6.9 17.1-6.9h24v-48q0-29.7 21.212-50.85 21.213-21.15 51-21.15Q774-456 795-434.85q21 21.15 21 50.85v48h24q10.2 0 17.1 6.9 6.9 6.9 6.9 17.1v144q0 10.2-6.9 17.1-6.9 6.9-17.1 6.9H648Zm60-192h72v-48q0-15.3-10.289-25.65-10.29-10.35-25.5-10.35Q729-420 718.5-409.65 708-399.3 708-384v48ZM480-144 0-624q94-90 217-141t263-51q140 0 263 51t217 141L814-477q-13-13-25.5-25T763-527l91-92q-81-61-176-93t-198-32q-103 0-198 32t-176 93l374 373 48-48 25.5 25.5L579-243l-99 99Zm0-351Z"/></svg>