<?xml version="1.0" encoding="UTF-8" standalone="no"?>
<svg
   height="20"
   viewBox="0 -960 960 960"
   width="20"
   version="1.1"
   id="svg1"
   sodipodi:docname="wifi_off_white.svg"
   inkscape:version="1.4 (e7c3feb100, 2024-10-09)"
   inkscape:export-filename="../assets/wifi_off_white.png"
   inkscape:export-xdpi="76.800003"
   inkscape:export-ydpi="76.800003"
   xmlns:inkscape="http://www.inkscape.org/namespaces/inkscape"
   xmlns:sodipodi="http://sodipodi.sourceforge.net/DTD/sodipodi-0.dtd"
   xmlns="http://www.w3.org/2000/svg"
   xmlns:svg="http://www.w3.org/2000/svg">
  <defs
     id="defs1" />
  <sodipodi:namedview
     id="namedview1"
     pagecolor="#505050"
     bordercolor="#eeeeee"
     borderopacity="1"
     inkscape:showpageshadow="0"
     inkscape:pageopacity="0"
     inkscape:pagecheckerboard="0"
     inkscape:deskcolor="#d1d1d1"
     inkscape:zoom="33"
     inkscape:cx="10.045455"
     inkscape:cy="10"
     inkscape:window-width="1503"
     inkscape:window-height="930"
     inkscape:window-x="0"
     inkscape:window-y="0"
     inkscape:window-maximized="1"
     inkscape:current-layer="svg1" />
  <path
     d="m699-363-51-51 206-205q-81-61-176-93t-198-32q-36.667 0-73.333 4.5Q370-735 335-727l-59-59q48-15 99.241-22.5T480-816q140 0 263 51t217 141L699-363ZM480-246l66-66-359-359q-21 11-41 24.5T106-619l374 373ZM813-45 597-261 480-144 0-624q30-29 63.533-54.224Q97.065-703.447 134-724l-89-89 51-51L864-96l-51 51ZM492-571Zm-125 79Z"
     id="path1"
     style="fill:#ffffff" />
</svg>
