<?xml version="1.0" encoding="UTF-8" standalone="no"?>
<svg
   height="24px"
   viewBox="0 -960 960 960"
   width="24px"
   fill="#e8eaed"
   version="1.1"
   id="svg1"
   sodipodi:docname="wifi_signal_strong_white.svg"
   inkscape:export-filename="../assets/wifi_signal_strong_white.png"
   inkscape:export-xdpi="64"
   inkscape:export-ydpi="64"
   inkscape:version="1.4 (e7c3feb100, 2024-10-09)"
   xmlns:inkscape="http://www.inkscape.org/namespaces/inkscape"
   xmlns:sodipodi="http://sodipodi.sourceforge.net/DTD/sodipodi-0.dtd"
   xmlns="http://www.w3.org/2000/svg"
   xmlns:svg="http://www.w3.org/2000/svg">
  <defs
     id="defs1" />
  <sodipodi:namedview
     id="namedview1"
     pagecolor="#505050"
     bordercolor="#eeeeee"
     borderopacity="1"
     inkscape:showpageshadow="0"
     inkscape:pageopacity="0"
     inkscape:pagecheckerboard="0"
     inkscape:deskcolor="#d1d1d1"
     inkscape:zoom="27.5"
     inkscape:cx="10.563636"
     inkscape:cy="12.036364"
     inkscape:window-width="1503"
     inkscape:window-height="930"
     inkscape:window-x="0"
     inkscape:window-y="0"
     inkscape:window-maximized="1"
     inkscape:current-layer="svg1" />
  <path
     d="m 480,-120 c -28,0 -51.66667,-9.66667 -71,-29 -19.33333,-19.33333 -29,-43 -29,-71 0,-28 9.66667,-51.66667 29,-71 19.33333,-19.33333 43,-29 71,-29 28,0 51.66667,9.66667 71,29 19.33333,19.33333 29,43 29,71 0,28 -9.66667,51.66667 -29,71 -19.33333,19.33333 -43,29 -71,29 z"
     id="path1" />
  <path
     d="m 254,-346 -84,-86 c 39.33333,-39.33333 85.5,-70.5 138.5,-93.5 53,-23 110.16667,-34.5 171.5,-34.5 61.33333,0 118.5,11.66667 171.5,35 53,23.33333 99.16667,55 138.5,95 l -84,84 c -29.33333,-29.33333 -63.33333,-52.33333 -102,-69 -38.66667,-16.66667 -80,-25 -124,-25 -44,0 -85.33333,8.33333 -124,25 -38.66667,16.66667 -72.66667,39.66667 -102,69 z"
     id="path2" />
  <path
     d="M 84,-516 0,-600 c 61.333333,-62.66667 133,-111.66667 215,-147 82,-35.33333 170.33333,-53 265,-53 94.66667,0 183,17.66667 265,53 82,35.33333 153.66667,84.33333 215,147 l -84,84 C 824.66667,-567.33333 765.16667,-607.5 697.5,-636.5 629.83333,-665.5 557.33333,-680 480,-680 c -77.33333,0 -149.83333,14.5 -217.5,43.5 -67.66667,29 -127.16667,69.16667 -178.5,120.5 z"
     id="path3" />
</svg>
