<?xml version="1.0" encoding="utf-8"?>
<!-- License: PD. Made by Mary Akveo: https://maryakveo.com/ -->
<svg fill="#000000" width="800px" height="800px" viewBox="0 0 24 24" id="chip" data-name="Flat Line" xmlns="http://www.w3.org/2000/svg" class="icon flat-line"><rect id="secondary" x="6" y="6" width="12" height="12" rx="1" style="fill: none; stroke-width: 2;"></rect><path id="primary" d="M12,6V3m4,3V4M8,6V4m10,8h3m-3,4h2M18,8h2M12,18v3M8,18v2m8-2v2M6,12H3M6,8H4m2,8H4m14,1V7a1,1,0,0,0-1-1H7A1,1,0,0,0,6,7V17a1,1,0,0,0,1,1H17A1,1,0,0,0,18,17Z" style="fill: none; stroke: #333333; stroke-linecap: round; stroke-linejoin: round; stroke-width: 2;"></path></svg>