<?xml version="1.0" encoding="UTF-8" standalone="no"?>
<svg
   height="20"
   viewBox="0 -960 960 960"
   width="20"
   version="1.1"
   id="svg1"
   sodipodi:docname="wifi_scan_white.svg"
   inkscape:export-filename="../assets/wifi_scan_white.png"
   inkscape:export-xdpi="76.800003"
   inkscape:export-ydpi="76.800003"
   inkscape:version="1.4 (e7c3feb100, 2024-10-09)"
   xmlns:inkscape="http://www.inkscape.org/namespaces/inkscape"
   xmlns:sodipodi="http://sodipodi.sourceforge.net/DTD/sodipodi-0.dtd"
   xmlns="http://www.w3.org/2000/svg"
   xmlns:svg="http://www.w3.org/2000/svg">
  <defs
     id="defs1" />
  <sodipodi:namedview
     id="namedview1"
     pagecolor="#505050"
     bordercolor="#eeeeee"
     borderopacity="1"
     inkscape:showpageshadow="0"
     inkscape:pageopacity="0"
     inkscape:pagecheckerboard="0"
     inkscape:deskcolor="#d1d1d1"
     inkscape:zoom="33"
     inkscape:cx="10.015152"
     inkscape:cy="10"
     inkscape:window-width="1503"
     inkscape:window-height="930"
     inkscape:window-x="0"
     inkscape:window-y="0"
     inkscape:window-maximized="1"
     inkscape:current-layer="svg1" />
  <path
     d="M480-144 0-624q97-94 221-143t259-49q135 0 259 49t221 143l-51 52q-86-85-197-128.5T480-744q-102 0-197.5 32T106-619l427 422-53 53Zm381-48L745-308q-17 10-35 15t-38 5q-60 0-102-42t-42-102q0-60 42-102t102-42q60 0 102 42t42 102q0 20-4.5 38.5T796-359l116 116-51 51ZM672-360q30 0 51-21t21-51q0-30-21-51t-51-21q-30 0-51 21t-21 51q0 30 21 51t51 21ZM480-196Z"
     id="path1"
     style="fill:#ffffff" />
</svg>
