<?xml version="1.0" encoding="UTF-8" standalone="no"?>
<svg
   height="24px"
   viewBox="0 -960 960 960"
   width="24px"
   fill="#e8eaed"
   version="1.1"
   id="svg1"
   sodipodi:docname="search.svg"
   inkscape:version="1.4 (e7c3feb100, 2024-10-09)"
   inkscape:export-filename="search.png"
   inkscape:export-xdpi="96"
   inkscape:export-ydpi="96"
   xmlns:inkscape="http://www.inkscape.org/namespaces/inkscape"
   xmlns:sodipodi="http://sodipodi.sourceforge.net/DTD/sodipodi-0.dtd"
   xmlns="http://www.w3.org/2000/svg"
   xmlns:svg="http://www.w3.org/2000/svg">
  <defs
     id="defs1" />
  <sodipodi:namedview
     id="namedview1"
     pagecolor="#505050"
     bordercolor="#eeeeee"
     borderopacity="1"
     inkscape:showpageshadow="0"
     inkscape:pageopacity="0"
     inkscape:pagecheckerboard="0"
     inkscape:deskcolor="#d1d1d1"
     inkscape:zoom="47.5"
     inkscape:cx="12"
     inkscape:cy="10.989474"
     inkscape:window-width="2560"
     inkscape:window-height="1368"
     inkscape:window-x="0"
     inkscape:window-y="0"
     inkscape:window-maximized="1"
     inkscape:current-layer="svg1" />
  <path
     d="M 884.20117,0.42105034 548.79064,-334.98948 q -39.92982,31.94386 -91.8386,50.57778 -51.90877,18.63392 -110.47251,18.63392 -145.07836,0 -245.56842,-100.49006 Q 0.42105263,-466.7579 0.42105263,-611.83626 q 0,-145.07836 100.49005737,-245.56842 100.49006,-100.49006 245.56842,-100.49006 145.07836,0 245.56842,100.49006 100.49006,100.49006 100.49006,245.56842 0,58.56374 -18.63392,110.47251 -18.63392,51.90878 -50.57778,91.8386 L 958.73684,-74.114622 Z M 346.47953,-372.25731 q 99.82456,0 169.70175,-69.8772 69.8772,-69.87719 69.8772,-169.70175 0,-99.82456 -69.8772,-169.70175 -69.87719,-69.8772 -169.70175,-69.8772 -99.82456,0 -169.70176,69.8772 -69.87718,69.87719 -69.87718,169.70175 0,99.82456 69.87718,169.70175 69.8772,69.8772 169.70176,69.8772 z"
     id="path1"
     style="stroke-width:1.33099" />
</svg>
