<?xml version="1.0" encoding="UTF-8" standalone="no"?>
<svg
   height="24px"
   viewBox="0 -960 960 960"
   width="24px"
   fill="#e8eaed"
   version="1.1"
   id="svg1"
   sodipodi:docname="boot_logo_usb.svg"
   inkscape:export-filename="../assets/boot_logo_usb.png"
   inkscape:export-xdpi="192"
   inkscape:export-ydpi="192"
   inkscape:version="1.4 (e7c3feb100, 2024-10-09)"
   xmlns:inkscape="http://www.inkscape.org/namespaces/inkscape"
   xmlns:sodipodi="http://sodipodi.sourceforge.net/DTD/sodipodi-0.dtd"
   xmlns="http://www.w3.org/2000/svg"
   xmlns:svg="http://www.w3.org/2000/svg">
  <defs
     id="defs1" />
  <sodipodi:namedview
     id="namedview1"
     pagecolor="#505050"
     bordercolor="#eeeeee"
     borderopacity="1"
     inkscape:showpageshadow="0"
     inkscape:pageopacity="0"
     inkscape:pagecheckerboard="0"
     inkscape:deskcolor="#d1d1d1"
     inkscape:zoom="27.5"
     inkscape:cx="12.018182"
     inkscape:cy="12"
     inkscape:window-width="1503"
     inkscape:window-height="930"
     inkscape:window-x="0"
     inkscape:window-y="0"
     inkscape:window-maximized="1"
     inkscape:current-layer="svg1" />
  <path
     d="M480-80q-33 0-56.5-23.5T400-160q0-21 11-39t29-29v-92H320q-33 0-56.5-23.5T240-400v-92q-18-9-29-27t-11-41q0-33 23.5-56.5T280-640q33 0 56.5 23.5T360-560q0 23-11 40t-29 28v92h120v-320h-80l120-160 120 160h-80v320h120v-80h-40v-160h160v160h-40v80q0 33-23.5 56.5T640-320H520v92q19 10 29.5 28t10.5 40q0 33-23.5 56.5T480-80Z"
     id="path1" />
</svg>
