<?xml version="1.0" encoding="UTF-8" standalone="no"?>
<svg
   height="24px"
   viewBox="0 -960 960 960"
   width="24px"
   fill="#e8eaed"
   version="1.1"
   id="svg1"
   sodipodi:docname="apps.svg"
   inkscape:export-filename="apps.png"
   inkscape:export-xdpi="192"
   inkscape:export-ydpi="192"
   inkscape:version="1.4.2 (ebf0e940d0, 2025-05-08)"
   xmlns:inkscape="http://www.inkscape.org/namespaces/inkscape"
   xmlns:sodipodi="http://sodipodi.sourceforge.net/DTD/sodipodi-0.dtd"
   xmlns="http://www.w3.org/2000/svg"
   xmlns:svg="http://www.w3.org/2000/svg">
  <defs
     id="defs1" />
  <sodipodi:namedview
     id="namedview1"
     pagecolor="#ffffff"
     bordercolor="#000000"
     borderopacity="0.25"
     inkscape:showpageshadow="2"
     inkscape:pageopacity="0.0"
     inkscape:pagecheckerboard="0"
     inkscape:deskcolor="#d1d1d1"
     inkscape:zoom="17.088414"
     inkscape:cx="14.629795"
     inkscape:cy="18.901696"
     inkscape:window-width="2560"
     inkscape:window-height="1371"
     inkscape:window-x="0"
     inkscape:window-y="0"
     inkscape:window-maximized="1"
     inkscape:current-layer="svg1" />
  <path
     d="m 122.37644,-3.1685927 q -49.173234,0 -84.190541,-35.0173063 -35.0173063,-35.017307 -35.0173063,-84.190541 0,-49.17324 35.0173063,-84.19055 35.017307,-35.01731 84.190541,-35.01731 49.17324,0 84.19055,35.01731 35.01731,35.01731 35.01731,84.19055 0,49.173234 -35.01731,84.190541 -35.01731,35.0173063 -84.19055,35.0173063 z m 357.62356,0 q -49.17324,0 -84.19055,-35.0173063 -35.0173,-35.017307 -35.0173,-84.190541 0,-49.17324 35.0173,-84.19055 35.01731,-35.01731 84.19055,-35.01731 49.17324,0 84.19055,35.01731 35.0173,35.01731 35.0173,84.19055 0,49.173234 -35.0173,84.190541 Q 529.17324,-3.1685927 480,-3.1685927 Z m 357.62356,0 q -49.17324,0 -84.19055,-35.0173063 -35.01731,-35.017307 -35.01731,-84.190541 0,-49.17324 35.01731,-84.19055 35.01731,-35.01731 84.19055,-35.01731 49.17323,0 84.19054,35.01731 35.01731,35.01731 35.01731,84.19055 0,49.173234 -35.01731,84.190541 -35.01731,35.0173063 -84.19054,35.0173063 z M 122.37644,-360.79215 q -49.173234,0 -84.190541,-35.0173 Q 3.1685927,-430.82676 3.1685927,-480 q 0,-49.17324 35.0173063,-84.19055 35.017307,-35.0173 84.190541,-35.0173 49.17324,0 84.19055,35.0173 35.01731,35.01731 35.01731,84.19055 0,49.17324 -35.01731,84.19055 -35.01731,35.0173 -84.19055,35.0173 z m 357.62356,0 q -49.17324,0 -84.19055,-35.0173 -35.0173,-35.01731 -35.0173,-84.19055 0,-49.17324 35.0173,-84.19055 35.01731,-35.0173 84.19055,-35.0173 49.17324,0 84.19055,35.0173 35.0173,35.01731 35.0173,84.19055 0,49.17324 -35.0173,84.19055 -35.01731,35.0173 -84.19055,35.0173 z m 357.62356,0 q -49.17324,0 -84.19055,-35.0173 Q 718.4157,-430.82676 718.4157,-480 q 0,-49.17324 35.01731,-84.19055 35.01731,-35.0173 84.19055,-35.0173 49.17323,0 84.19054,35.0173 35.01731,35.01731 35.01731,84.19055 0,49.17324 -35.01731,84.19055 -35.01731,35.0173 -84.19054,35.0173 z M 122.37644,-718.4157 q -49.173234,0 -84.190541,-35.01731 -35.0173063,-35.01731 -35.0173063,-84.19055 0,-49.17323 35.0173063,-84.19054 35.017307,-35.01731 84.190541,-35.01731 49.17324,0 84.19055,35.01731 35.01731,35.01731 35.01731,84.19054 0,49.17324 -35.01731,84.19055 -35.01731,35.01731 -84.19055,35.01731 z m 357.62356,0 q -49.17324,0 -84.19055,-35.01731 -35.0173,-35.01731 -35.0173,-84.19055 0,-49.17323 35.0173,-84.19054 35.01731,-35.01731 84.19055,-35.01731 49.17324,0 84.19055,35.01731 35.0173,35.01731 35.0173,84.19054 0,49.17324 -35.0173,84.19055 Q 529.17324,-718.4157 480,-718.4157 Z m 357.62356,0 q -49.17324,0 -84.19055,-35.01731 -35.01731,-35.01731 -35.01731,-84.19055 0,-49.17323 35.01731,-84.19054 35.01731,-35.01731 84.19055,-35.01731 49.17323,0 84.19054,35.01731 35.01731,35.01731 35.01731,84.19054 0,49.17324 -35.01731,84.19055 -35.01731,35.01731 -84.19054,35.01731 z"
     id="path1"
     style="stroke-width:1.4901" />
</svg>
