<?xml version="1.0" encoding="UTF-8" standalone="no"?>
<svg
   height="24px"
   viewBox="0 -960 960 960"
   width="24px"
   fill="#e8eaed"
   version="1.1"
   id="svg1"
   sodipodi:docname="settings.svg"
   inkscape:export-filename="icon_settings.png"
   inkscape:export-xdpi="160"
   inkscape:export-ydpi="160"
   inkscape:version="1.4.2 (ebf0e940d0, 2025-05-08)"
   xmlns:inkscape="http://www.inkscape.org/namespaces/inkscape"
   xmlns:sodipodi="http://sodipodi.sourceforge.net/DTD/sodipodi-0.dtd"
   xmlns="http://www.w3.org/2000/svg"
   xmlns:svg="http://www.w3.org/2000/svg">
  <defs
     id="defs1" />
  <sodipodi:namedview
     id="namedview1"
     pagecolor="#ffffff"
     bordercolor="#000000"
     borderopacity="0.25"
     inkscape:showpageshadow="2"
     inkscape:pageopacity="0.0"
     inkscape:pagecheckerboard="0"
     inkscape:deskcolor="#d1d1d1"
     inkscape:zoom="48.333333"
     inkscape:cx="11.989655"
     inkscape:cy="12"
     inkscape:window-width="1503"
     inkscape:window-height="933"
     inkscape:window-x="0"
     inkscape:window-y="0"
     inkscape:window-maximized="1"
     inkscape:current-layer="svg1" />
  <path
     d="M 347.80751,0.69994853 328.57952,-153.12403 q -15.62275,-6.00875 -29.44288,-14.421 -13.82012,-8.41225 -27.03937,-18.02625 L 129.08904,-125.48379 -3.1034483,-353.81626 120.67679,-447.55275 q -1.20175,-8.41225 -1.20175,-16.22363 v -32.44724 q 0,-7.81138 1.20175,-16.22363 L -3.1034483,-606.18374 129.08904,-834.51621 l 143.00823,60.08749 q 13.21925,-9.614 27.64025,-18.02625 14.421,-8.41225 28.842,-14.421 l 19.22799,-153.82398 h 264.38498 l 19.22799,153.82398 q 15.62275,6.00875 29.44288,14.421 13.82012,8.41225 27.03937,18.02625 l 143.00823,-60.08749 132.19249,228.33247 -123.78024,93.73649 q 1.20175,8.41225 1.20175,16.22363 v 32.44724 q 0,7.81138 -2.4035,16.22363 l 123.78024,93.73649 -132.19249,228.33247 -141.80648,-60.08749 q -13.21925,9.614 -27.64025,18.02625 -14.421,8.41225 -28.842,14.421 L 612.19249,0.69994853 Z m 84.1225,-96.13998953 h 94.93823 l 16.8245,-127.385489 q 37.25425,-9.614 69.10062,-28.24112 31.84637,-18.62712 58.28487,-45.06562 l 118.97324,49.27175 46.86824,-81.719 -103.35049,-78.11374 q 6.00875,-16.8245 8.41225,-35.45162 2.4035,-18.62712 2.4035,-37.85512 0,-19.228 -2.4035,-37.85512 -2.4035,-18.62712 -8.41225,-35.45162 l 103.35049,-78.11374 -46.86824,-81.719 -118.97324,50.4735 q -26.4385,-27.64025 -58.28487,-46.26737 -31.84637,-18.62712 -69.10062,-28.24112 l -15.62275,-127.38549 h -94.93823 l -16.8245,127.38549 q -37.25425,9.614 -69.10062,28.24112 -31.84637,18.62712 -58.28487,45.06562 l -118.97324,-49.27175 -46.86824,81.719 103.35049,76.91199 q -6.00875,18.02625 -8.41225,36.05249 -2.4035,18.02625 -2.4035,38.456 0,19.228 2.4035,37.25425 2.4035,18.02624 8.41225,36.05249 l -103.35049,78.11374 46.86824,81.719 118.97324,-50.4735 q 26.4385,27.64025 58.28487,46.26737 31.84637,18.62712 69.10062,28.24112 z M 482.4035,-311.75502 q 69.70149,0 118.97324,-49.27174 49.27174,-49.27175 49.27174,-118.97324 0,-69.70149 -49.27174,-118.97324 -49.27175,-49.27174 -118.97324,-49.27174 -70.90324,0 -119.57411,49.27174 -48.67087,49.27175 -48.67087,118.97324 0,69.70149 48.67087,118.97324 48.67087,49.27174 119.57411,49.27174 z M 480,-480 Z"
     id="path1"
     style="stroke-width:1.20175" />
</svg>
